<svg width="230" height="18" viewBox="0 0 230 18" fill="none" xmlns="http://www.w3.org/2000/svg">
<g clip-path="url(#clip0_9_7788)">
<path d="M9.21666 4.345C9.21666 7.35658 6.06087 7.5942 4.69218 7.5942C4.02203 7.5942 3.51956 7.54879 3.51956 7.54879V1.52682C3.51956 1.52682 4.16176 1.4767 5.3627 1.4767C7.20577 1.4767 9.21666 2.2657 9.21666 4.345ZM13.3401 12.2788C13.3401 8.31894 7.80667 7.98223 7.80667 7.98223C7.80667 7.98223 11.5813 7.02223 11.5813 4.20225C11.5813 0.995495 7.31755 0.508423 5.41813 0.508423H0.109375C0.341154 0.570739 0.544822 0.710084 0.68688 0.903537C0.828937 1.09699 0.900925 1.33303 0.891 1.57284V15.7079C0.895224 15.9492 0.821434 16.1855 0.680605 16.3815C0.539776 16.5775 0.339433 16.7229 0.109375 16.7959H6.14432C12.1247 16.7959 13.3401 14.1493 13.3401 12.2788ZM10.6712 12.0388C10.6712 15.6112 6.5913 15.8293 4.83252 15.8293C4.02203 15.8293 3.51956 15.7763 3.51956 15.7763V8.65806C3.51956 8.65806 4.88795 8.61084 5.75424 8.61084C8.09917 8.61084 10.6712 9.23299 10.6712 12.0388Z" fill="#231F20"/>
<path d="M9.21666 4.345C9.21666 7.35658 6.06087 7.5942 4.69218 7.5942C4.02203 7.5942 3.51956 7.54879 3.51956 7.54879V1.52682C3.51956 1.52682 4.16176 1.4767 5.3627 1.4767C7.20577 1.4767 9.21666 2.2657 9.21666 4.345ZM13.3401 12.2788C13.3401 8.31894 7.80667 7.98223 7.80667 7.98223C7.80667 7.98223 11.5813 7.02223 11.5813 4.20225C11.5813 0.995495 7.31755 0.508423 5.41813 0.508423H0.109375C0.341154 0.570739 0.544822 0.710084 0.68688 0.903537C0.828937 1.09699 0.900925 1.33303 0.891 1.57284V15.7079C0.895224 15.9492 0.821434 16.1855 0.680605 16.3815C0.539776 16.5775 0.339433 16.7229 0.109375 16.7959H6.14432C12.1247 16.7959 13.3401 14.1493 13.3401 12.2788ZM10.6712 12.0388C10.6712 15.6112 6.5913 15.8293 4.83252 15.8293C4.02203 15.8293 3.51956 15.7763 3.51956 15.7763V8.65806C3.51956 8.65806 4.88795 8.61084 5.75424 8.61084C8.09917 8.61084 10.6712 9.23299 10.6712 12.0388Z" fill="white"/>
<path d="M184.418 4.345C184.418 7.35658 181.264 7.5942 179.893 7.5942C179.224 7.5942 178.72 7.54879 178.72 7.54879V1.52682C178.72 1.52682 179.364 1.4767 180.566 1.4767C182.408 1.4767 184.418 2.2657 184.418 4.345ZM188.541 12.2788C188.541 8.31894 183.009 7.98223 183.009 7.98223C183.009 7.98223 186.783 7.02223 186.783 4.20225C186.783 0.995495 182.518 0.508423 180.622 0.508423H175.311C175.542 0.570669 175.746 0.709987 175.888 0.903449C176.03 1.09691 176.102 1.33299 176.092 1.57284V15.7079C176.097 15.9493 176.023 16.1856 175.882 16.3816C175.741 16.5776 175.541 16.7229 175.311 16.7959H181.346C187.327 16.7959 188.541 14.1493 188.541 12.2788ZM185.872 12.0388C185.872 15.6112 181.793 15.8293 180.035 15.8293C179.224 15.8293 178.72 15.7763 178.72 15.7763V8.65806C178.72 8.65806 180.09 8.61084 180.955 8.61084C183.302 8.61084 185.872 9.23299 185.872 12.0388Z" fill="#231F20"/>
<path d="M184.418 4.345C184.418 7.35658 181.264 7.5942 179.893 7.5942C179.224 7.5942 178.72 7.54879 178.72 7.54879V1.52682C178.72 1.52682 179.364 1.4767 180.566 1.4767C182.408 1.4767 184.418 2.2657 184.418 4.345ZM188.541 12.2788C188.541 8.31894 183.009 7.98223 183.009 7.98223C183.009 7.98223 186.783 7.02223 186.783 4.20225C186.783 0.995495 182.518 0.508423 180.622 0.508423H175.311C175.542 0.570669 175.746 0.709987 175.888 0.903449C176.03 1.09691 176.102 1.33299 176.092 1.57284V15.7079C176.097 15.9493 176.023 16.1856 175.882 16.3816C175.741 16.5776 175.541 16.7229 175.311 16.7959H181.346C187.327 16.7959 188.541 14.1493 188.541 12.2788ZM185.872 12.0388C185.872 15.6112 181.793 15.8293 180.035 15.8293C179.224 15.8293 178.72 15.7763 178.72 15.7763V8.65806C178.72 8.65806 180.09 8.61084 180.955 8.61084C183.302 8.61084 185.872 9.23299 185.872 12.0388Z" fill="white"/>
<path d="M25.0164 10.913H18.7364C19.9641 8.32896 21.8627 4.21112 21.8627 4.21112C21.8627 4.21112 23.566 7.89793 25.0164 10.913ZM31.6605 16.7959C30.6834 16.4131 30.487 16.1254 30.2638 15.6224C29.8174 14.7101 22.6163 0.117432 22.6163 0.117432C22.6163 0.117432 15.4424 14.7101 14.9679 15.6224C14.6743 16.1392 14.2248 16.55 13.6836 16.7959H17.0885C16.3635 16.5553 16.2806 16.1732 16.5038 15.6224C16.6147 15.334 17.3403 13.7512 18.2614 11.9527H25.4914C26.3559 13.8002 27.1373 15.334 27.3059 15.6224C27.5288 16.1732 27.3334 16.5075 26.6077 16.7959H31.6605Z" fill="#231F20"/>
<path d="M25.0164 10.913H18.7364C19.9641 8.32896 21.8627 4.21112 21.8627 4.21112C21.8627 4.21112 23.566 7.89793 25.0164 10.913ZM31.6605 16.7959C30.6834 16.4131 30.487 16.1254 30.2638 15.6224C29.8174 14.7101 22.6163 0.117432 22.6163 0.117432C22.6163 0.117432 15.4424 14.7101 14.9679 15.6224C14.6743 16.1392 14.2248 16.55 13.6836 16.7959H17.0885C16.3635 16.5553 16.2806 16.1732 16.5038 15.6224C16.6147 15.334 17.3403 13.7512 18.2614 11.9527H25.4914C26.3559 13.8002 27.1373 15.334 27.3059 15.6224C27.5288 16.1732 27.3334 16.5075 26.6077 16.7959H31.6605Z" fill="white"/>
<path d="M48.2078 1.58932V17.2494C48.2078 17.2494 34.8989 3.4103 34.8989 3.17087V15.715C34.8959 15.9558 34.9709 16.1912 35.1126 16.386C35.2543 16.5808 35.4552 16.7246 35.6853 16.7959H32.8712C33.0846 16.7066 33.2671 16.5565 33.3958 16.3643C33.5245 16.1721 33.5938 15.9463 33.5951 15.715V2.49866C33.5951 1.80695 33.5951 1.75913 33.2604 1.37465C32.9017 0.993803 32.4624 0.697862 31.9746 0.508423H35.8218L46.8763 12.1732V1.58932C46.8807 1.35613 46.8132 1.12724 46.6829 0.933815C46.5526 0.740393 46.3658 0.59185 46.148 0.508423H48.962C48.7382 0.585793 48.5447 0.732068 48.4092 0.926258C48.2737 1.12045 48.2032 1.35257 48.2078 1.58932Z" fill="#231F20"/>
<path d="M48.2078 1.58932V17.2494C48.2078 17.2494 34.8989 3.4103 34.8989 3.17087V15.715C34.8959 15.9558 34.9709 16.1912 35.1126 16.386C35.2543 16.5808 35.4552 16.7246 35.6853 16.7959H32.8712C33.0846 16.7066 33.2671 16.5565 33.3958 16.3643C33.5245 16.1721 33.5938 15.9463 33.5951 15.715V2.49866C33.5951 1.80695 33.5951 1.75913 33.2604 1.37465C32.9017 0.993803 32.4624 0.697862 31.9746 0.508423H35.8218L46.8763 12.1732V1.58932C46.8807 1.35613 46.8132 1.12724 46.6829 0.933815C46.5526 0.740393 46.3658 0.59185 46.148 0.508423H48.962C48.7382 0.585793 48.5447 0.732068 48.4092 0.926258C48.2737 1.12045 48.2032 1.35257 48.2078 1.58932Z" fill="white"/>
<path d="M61.1466 10.9148H54.866C56.0943 8.33017 57.9929 4.21112 57.9929 4.21112C57.9929 4.21112 59.6956 7.90083 61.1466 10.9148ZM67.7907 16.7959C66.8136 16.412 66.6178 16.1278 66.3952 15.6229C65.9476 14.7119 58.7465 0.117432 58.7465 0.117432C58.7465 0.117432 51.5723 14.7119 51.0981 15.6229C50.8045 16.1398 50.3548 16.5504 49.8135 16.7959H53.2193C52.4937 16.5553 52.4096 16.1749 52.6334 15.6229C52.7454 15.3352 53.4702 13.7531 54.3916 11.9539H61.621C62.4861 13.8002 63.268 15.3352 63.4361 15.6229C63.6602 16.1749 63.4638 16.5075 62.7379 16.7959H67.7907Z" fill="#231F20"/>
<path d="M61.1466 10.9148H54.866C56.0943 8.33017 57.9929 4.21112 57.9929 4.21112C57.9929 4.21112 59.6956 7.90083 61.1466 10.9148ZM67.7907 16.7959C66.8136 16.412 66.6178 16.1278 66.3952 15.6229C65.9476 14.7119 58.7465 0.117432 58.7465 0.117432C58.7465 0.117432 51.5723 14.7119 51.0981 15.6229C50.8045 16.1398 50.3548 16.5504 49.8135 16.7959H53.2193C52.4937 16.5553 52.4096 16.1749 52.6334 15.6229C52.7454 15.3352 53.4702 13.7531 54.3916 11.9539H61.621C62.4861 13.8002 63.268 15.3352 63.4361 15.6229C63.6602 16.1749 63.4638 16.5075 62.7379 16.7959H67.7907Z" fill="white"/>
<path d="M84.4555 1.59289V17.2523C84.4555 17.2523 71.1479 3.4103 71.1479 3.17147V15.7173C71.1437 15.9576 71.2177 16.1928 71.3589 16.3874C71.5 16.5819 71.7006 16.7253 71.9304 16.7959H69.1169C69.3308 16.7077 69.5139 16.5583 69.6431 16.3664C69.7724 16.1745 69.8421 15.9487 69.8434 15.7173V2.50156C69.8434 1.8081 69.8434 1.76154 69.5088 1.37761C69.1507 0.995755 68.7118 0.698783 68.2241 0.508423H72.0701L83.124 12.175V1.59289C83.1291 1.35913 83.0618 1.12951 82.9315 0.935409C82.8011 0.741307 82.614 0.592187 82.3957 0.508423H85.2098C84.9856 0.586316 84.7919 0.733216 84.6564 0.928044C84.5209 1.12287 84.4506 1.35562 84.4555 1.59289Z" fill="#231F20"/>
<path d="M84.4555 1.59289V17.2523C84.4555 17.2523 71.1479 3.4103 71.1479 3.17147V15.7173C71.1437 15.9576 71.2177 16.1928 71.3589 16.3874C71.5 16.5819 71.7006 16.7253 71.9304 16.7959H69.1169C69.3308 16.7077 69.5139 16.5583 69.6431 16.3664C69.7724 16.1745 69.8421 15.9487 69.8434 15.7173V2.50156C69.8434 1.8081 69.8434 1.76154 69.5088 1.37761C69.1507 0.995755 68.7118 0.698783 68.2241 0.508423H72.0701L83.124 12.175V1.59289C83.1291 1.35913 83.0618 1.12951 82.9315 0.935409C82.8011 0.741307 82.614 0.592187 82.3957 0.508423H85.2098C84.9856 0.586316 84.7919 0.733216 84.6564 0.928044C84.5209 1.12287 84.4506 1.35562 84.4555 1.59289Z" fill="white"/>
<path d="M97.1101 10.9112H90.8289C92.0585 8.32656 93.9558 4.20932 93.9558 4.20932C93.9558 4.20932 95.658 7.89493 97.1101 10.9112ZM103.753 16.7958C102.776 16.4113 102.58 16.1224 102.358 15.6188C101.911 14.7077 94.7085 0.113281 94.7085 0.113281C94.7085 0.113281 87.5348 14.7077 87.0611 15.6188C86.7692 16.138 86.3191 16.5505 85.7764 16.7958H89.1819C88.4566 16.5576 88.3737 16.1702 88.5958 15.6188C88.7084 15.3305 89.4337 13.7494 90.3545 11.9503H97.5839C98.449 13.7966 99.2313 15.3305 99.3981 15.6188C99.6213 16.1702 99.427 16.5098 98.6996 16.7958H103.753Z" fill="#231F20"/>
<path d="M97.1101 10.9112H90.8289C92.0585 8.32656 93.9558 4.20932 93.9558 4.20932C93.9558 4.20932 95.658 7.89493 97.1101 10.9112ZM103.753 16.7958C102.776 16.4113 102.58 16.1224 102.358 15.6188C101.911 14.7077 94.7085 0.113281 94.7085 0.113281C94.7085 0.113281 87.5348 14.7077 87.0611 15.6188C86.7692 16.138 86.3191 16.5505 85.7764 16.7958H89.1819C88.4566 16.5576 88.3737 16.1702 88.5958 15.6188C88.7084 15.3305 89.4337 13.7494 90.3545 11.9503H97.5839C98.449 13.7966 99.2313 15.3305 99.3981 15.6188C99.6213 16.1702 99.427 16.5098 98.6996 16.7958H103.753Z" fill="white"/>
<path d="M121.431 4.56081C121.431 7.07585 119.337 8.15324 117.213 8.15324C116.484 8.15324 115.592 8.10723 115.592 8.10723V1.53033C115.592 1.53033 116.431 1.44367 117.686 1.44367C120.647 1.44367 121.431 3.4333 121.431 4.56081ZM128.529 16.7959C127.881 16.5849 127.276 16.2606 126.742 15.8382C125.541 14.7101 122.55 10.3216 122.55 10.3216C121.916 9.38965 120.943 8.74189 119.838 8.51592C121.573 8.39563 123.924 7.07585 123.924 4.48829C123.924 2.97806 123.048 0.508423 117.457 0.508423H112.208C112.428 0.584235 112.619 0.726823 112.755 0.916331C112.89 1.10584 112.963 1.33284 112.963 1.56571V15.7173C112.956 15.9511 112.881 16.1778 112.747 16.3694C112.612 16.561 112.425 16.7092 112.208 16.7959H116.375C116.155 16.7104 115.964 16.5632 115.825 16.3719C115.686 16.1807 115.605 15.9534 115.592 15.7173V9.11916H117.213C118.664 9.11916 119.252 10.1517 119.978 11.113C120.954 12.4563 121.962 13.9193 123.39 15.7173C123.666 16.0579 124.016 16.3317 124.413 16.5184C124.809 16.7052 125.243 16.8 125.682 16.7959H128.529Z" fill="#231F20"/>
<path d="M121.431 4.56081C121.431 7.07585 119.337 8.15324 117.213 8.15324C116.484 8.15324 115.592 8.10723 115.592 8.10723V1.53033C115.592 1.53033 116.431 1.44367 117.686 1.44367C120.647 1.44367 121.431 3.4333 121.431 4.56081ZM128.529 16.7959C127.881 16.5849 127.276 16.2606 126.742 15.8382C125.541 14.7101 122.55 10.3216 122.55 10.3216C121.916 9.38965 120.943 8.74189 119.838 8.51592C121.573 8.39563 123.924 7.07585 123.924 4.48829C123.924 2.97806 123.048 0.508423 117.457 0.508423H112.208C112.428 0.584235 112.619 0.726823 112.755 0.916331C112.89 1.10584 112.963 1.33284 112.963 1.56571V15.7173C112.956 15.9511 112.881 16.1778 112.747 16.3694C112.612 16.561 112.425 16.7092 112.208 16.7959H116.375C116.155 16.7104 115.964 16.5632 115.825 16.3719C115.686 16.1807 115.605 15.9534 115.592 15.7173V9.11916H117.213C118.664 9.11916 119.252 10.1517 119.978 11.113C120.954 12.4563 121.962 13.9193 123.39 15.7173C123.666 16.0579 124.016 16.3317 124.413 16.5184C124.809 16.7052 125.243 16.8 125.682 16.7959H128.529Z" fill="white"/>
<path d="M141.382 16.7959H130.154C130.394 16.7318 130.606 16.5906 130.758 16.3939C130.909 16.1972 130.992 15.9561 130.992 15.7079L130.996 1.59578C130.995 1.3555 130.919 1.12148 130.779 0.9265C130.638 0.731519 130.44 0.585337 130.213 0.508423H140.713L140.767 2.36479C140.463 2.05991 140.095 1.82654 139.689 1.68161C139.284 1.53667 138.851 1.4838 138.422 1.52682H133.621V7.25634H138.171C138.376 7.22938 138.571 7.15441 138.74 7.03756C138.91 6.9207 139.05 6.7653 139.148 6.58408V8.91633C139.05 8.73526 138.91 8.58 138.74 8.46326C138.57 8.34652 138.375 8.27162 138.171 8.24467H133.621V15.7763H136.865C139.88 15.7527 140.935 15.7562 141.968 14.2513L141.382 16.7959Z" fill="#231F20"/>
<path d="M141.382 16.7959H130.154C130.394 16.7318 130.606 16.5906 130.758 16.3939C130.909 16.1972 130.992 15.9561 130.992 15.7079L130.996 1.59578C130.995 1.3555 130.919 1.12148 130.779 0.9265C130.638 0.731519 130.44 0.585337 130.213 0.508423H140.713L140.767 2.36479C140.463 2.05991 140.095 1.82654 139.689 1.68161C139.284 1.53667 138.851 1.4838 138.422 1.52682H133.621V7.25634H138.171C138.376 7.22938 138.571 7.15441 138.74 7.03756C138.91 6.9207 139.05 6.7653 139.148 6.58408V8.91633C139.05 8.73526 138.91 8.58 138.74 8.46326C138.57 8.34652 138.375 8.27162 138.171 8.24467H133.621V15.7763H136.865C139.88 15.7527 140.935 15.7562 141.968 14.2513L141.382 16.7959Z" fill="white"/>
<path d="M154.298 5.00072C154.298 8.28416 151.042 8.74061 149.537 8.74061C149.076 8.75382 148.616 8.69695 148.173 8.57196V1.52682C148.793 1.46658 149.416 1.44137 150.04 1.45134C152.85 1.45134 154.298 2.81828 154.298 5.00072ZM156.688 4.95356C156.688 3.08247 155.689 0.508423 150.116 0.508423H144.785C145.009 0.589967 145.204 0.737076 145.343 0.930598C145.482 1.12412 145.56 1.35509 145.566 1.59343L145.561 15.715C145.548 15.9513 145.468 16.1789 145.329 16.3706C145.19 16.5623 144.999 16.71 144.778 16.7959H148.94C148.714 16.7189 148.518 16.5735 148.378 16.3797C148.239 16.186 148.163 15.9536 148.162 15.715V9.33793C149.979 9.86508 151.914 9.81439 153.701 9.1929C154.561 8.85931 155.304 8.27893 155.835 7.52466C156.367 6.7704 156.663 5.8759 156.688 4.95356Z" fill="#231F20"/>
<path d="M154.298 5.00072C154.298 8.28416 151.042 8.74061 149.537 8.74061C149.076 8.75382 148.616 8.69695 148.173 8.57196V1.52682C148.793 1.46658 149.416 1.44137 150.04 1.45134C152.85 1.45134 154.298 2.81828 154.298 5.00072ZM156.688 4.95356C156.688 3.08247 155.689 0.508423 150.116 0.508423H144.785C145.009 0.589967 145.204 0.737076 145.343 0.930598C145.482 1.12412 145.56 1.35509 145.566 1.59343L145.561 15.715C145.548 15.9513 145.468 16.1789 145.329 16.3706C145.19 16.5623 144.999 16.71 144.778 16.7959H148.94C148.714 16.7189 148.518 16.5735 148.378 16.3797C148.239 16.186 148.163 15.9536 148.162 15.715V9.33793C149.979 9.86508 151.914 9.81439 153.701 9.1929C154.561 8.85931 155.304 8.27893 155.835 7.52466C156.367 6.7704 156.663 5.8759 156.688 4.95356Z" fill="white"/>
<path d="M172.716 1.59343V11.6277C172.689 15.5569 169.764 17.0229 166.274 17.0229C163.204 17.0229 159.263 15.7203 159.263 11.6744V1.59289C159.24 1.34739 159.147 1.11386 158.993 0.921141C158.839 0.72842 158.632 0.584942 158.398 0.508423H162.87C162.627 0.577778 162.409 0.71784 162.245 0.910883C162.081 1.10393 161.978 1.34127 161.949 1.59289V11.7209C161.949 13.3738 162.617 15.9119 166.553 15.9119C170.295 15.9119 171.503 13.8798 171.477 11.7239L171.47 1.59289C171.48 1.35834 171.415 1.1266 171.285 0.9315C171.154 0.7364 170.965 0.58816 170.744 0.508423H173.468C173.245 0.587058 173.052 0.734289 172.917 0.929122C172.782 1.12395 172.712 1.35644 172.716 1.59343Z" fill="#231F20"/>
<path d="M172.716 1.59343V11.6277C172.689 15.5569 169.764 17.0229 166.274 17.0229C163.204 17.0229 159.263 15.7203 159.263 11.6744V1.59289C159.24 1.34739 159.147 1.11386 158.993 0.921141C158.839 0.72842 158.632 0.584942 158.398 0.508423H162.87C162.627 0.577778 162.409 0.71784 162.245 0.910883C162.081 1.10393 161.978 1.34127 161.949 1.59289V11.7209C161.949 13.3738 162.617 15.9119 166.553 15.9119C170.295 15.9119 171.503 13.8798 171.477 11.7239L171.47 1.59289C171.48 1.35834 171.415 1.1266 171.285 0.9315C171.154 0.7364 170.965 0.58816 170.744 0.508423H173.468C173.245 0.587058 173.052 0.734289 172.917 0.929122C172.782 1.12395 172.712 1.35644 172.716 1.59343Z" fill="white"/>
<path d="M202.058 16.7959H190.944C191.171 16.7171 191.368 16.5701 191.507 16.3749C191.647 16.1798 191.723 15.9462 191.725 15.7061V1.58697C191.73 1.34672 191.656 1.11151 191.515 0.916919C191.374 0.722325 191.174 0.57893 190.944 0.508423H195.136C194.912 0.585201 194.719 0.731002 194.583 0.924826C194.448 1.11865 194.377 1.35049 194.382 1.58697V15.7763H197.368C200.717 15.7515 201.666 15.7061 202.616 14.2472L202.058 16.7959Z" fill="#231F20"/>
<path d="M202.058 16.7959H190.944C191.171 16.7171 191.368 16.5701 191.507 16.3749C191.647 16.1798 191.723 15.9462 191.725 15.7061V1.58697C191.73 1.34672 191.656 1.11151 191.515 0.916919C191.374 0.722325 191.174 0.57893 190.944 0.508423H195.136C194.912 0.585201 194.719 0.731002 194.583 0.924826C194.448 1.11865 194.377 1.35049 194.382 1.58697V15.7763H197.368C200.717 15.7515 201.666 15.7061 202.616 14.2472L202.058 16.7959Z" fill="white"/>
<path d="M205.061 16.7959C205.28 16.7121 205.47 16.5641 205.604 16.371C205.738 16.178 205.811 15.9489 205.813 15.7138V1.58576C205.818 1.34959 205.748 1.11792 205.613 0.924258C205.477 0.730592 205.284 0.584963 205.061 0.508423H209.196C208.979 0.591387 208.793 0.739449 208.663 0.932319C208.534 1.12519 208.467 1.35343 208.472 1.58576V15.7138C208.474 15.9451 208.543 16.1709 208.672 16.3632C208.801 16.5555 208.983 16.7059 209.196 16.7959H205.061Z" fill="#231F20"/>
<path d="M205.061 16.7959C205.28 16.7121 205.47 16.5641 205.604 16.371C205.738 16.178 205.811 15.9489 205.813 15.7138V1.58576C205.818 1.34959 205.748 1.11792 205.613 0.924258C205.477 0.730592 205.284 0.584963 205.061 0.508423H209.196C208.979 0.591387 208.793 0.739449 208.663 0.932319C208.534 1.12519 208.467 1.35343 208.472 1.58576V15.7138C208.474 15.9451 208.543 16.1709 208.672 16.3632C208.801 16.5555 208.983 16.7059 209.196 16.7959H205.061Z" fill="white"/>
<path d="M229.236 15.3764C227.051 16.4628 224.642 17.0236 222.202 17.014C216.674 17.014 211.81 13.6958 211.81 8.68161C211.81 4.60326 215.42 0.253662 222.51 0.253662C224.771 0.301848 227.004 0.767889 229.096 1.62827C229.096 1.62827 229.403 5.27493 229.347 5.17879C228.727 3.96797 227.776 2.95779 226.605 2.26546C225.434 1.57314 224.091 1.22705 222.731 1.26735C217.402 1.26735 214.664 4.48297 214.664 8.37087C214.664 11.8253 216.87 15.9508 222.703 15.9508C224.087 16.0221 225.463 15.6937 226.665 15.0049C227.868 14.3161 228.847 13.2959 229.486 12.0659C229.542 11.9928 229.236 15.3764 229.236 15.3764Z" fill="#231F20"/>
<path d="M229.236 15.3764C227.051 16.4628 224.642 17.0236 222.202 17.014C216.674 17.014 211.81 13.6958 211.81 8.68161C211.81 4.60326 215.42 0.253662 222.51 0.253662C224.771 0.301848 227.004 0.767889 229.096 1.62827C229.096 1.62827 229.403 5.27493 229.347 5.17879C228.727 3.96797 227.776 2.95779 226.605 2.26546C225.434 1.57314 224.091 1.22705 222.731 1.26735C217.402 1.26735 214.664 4.48297 214.664 8.37087C214.664 11.8253 216.87 15.9508 222.703 15.9508C224.087 16.0221 225.463 15.6937 226.665 15.0049C227.868 14.3161 228.847 13.2959 229.486 12.0659C229.542 11.9928 229.236 15.3764 229.236 15.3764Z" fill="white"/>
</g>
<defs>
<clipPath id="clip0_9_7788">
<rect width="229.384" height="17.139" fill="white" transform="translate(0.109375 0.113281)"/>
</clipPath>
</defs>
</svg>
