<?xml version="1.0" encoding="UTF-8"?><svg id="Layer_2" xmlns="http://www.w3.org/2000/svg" viewBox="0 0 2197 2097"><defs><style>.cls-1{fill:#fff;}</style></defs><g id="Layer_1-2"><g><rect class="cls-1" width="2197" height="2097"/><g><path d="M273.42,411.58h9.25c8.09,0,9.25-6.21,12.48-14.85l25.19-66.69c1.39-3.78,0-6.21-3.47-6.21h-10.86v-35.91h65.18v35.91h-9.25c-3.47,0-4.85,2.43-3.47,6.21l25.66,66.69c3.24,8.64,4.39,14.85,12.48,14.85h9.25v38.34h-62.87v-38.34h12.02c8.09,0,13.17-5.94,9.94-14.85l-5.09-14.58h-40.45l-5.08,14.58c-3,8.91,1.85,14.85,9.94,14.85h11.79v38.34h-62.64v-38.34Zm80.21-47.25l-14.33-40.77-13.87,40.77h28.2Z"/><path d="M414.2,411.58h8.09c8.78,0,13.64-5.67,13.64-15.93v-53.46c0-10.26-4.85-15.93-13.64-15.93h-8.09v-38.34h73.96c24.04,0,37.44,17.01,37.44,45.09,0,18.63-4.16,32.13-21.73,36.18,19.18,3.24,26.12,21.87,26.12,41.31,0,28.08-15.95,39.42-39.99,39.42h-75.81v-38.34Zm72.58-51.84c8.78,0,13.64-5.67,13.64-15.93v-1.62c0-10.26-4.85-15.93-13.64-15.93h-18.26c-8.78,0-13.64,5.67-13.64,15.93v17.55h31.9Zm-18.26,51.03h18.26c8.78,0,13.64-5.67,13.64-15.93v-1.62c0-10.26-4.85-15.93-13.64-15.93h-31.9v17.55c0,10.26,4.85,15.93,13.64,15.93Z"/><path d="M627.5,357.31v-8.37c0-15.39-7.86-23.49-22.19-23.49h-25.89c-14.33,0-22.19,8.1-22.19,23.49v40.23c0,15.39,7.86,23.49,22.19,23.49h25.89c14.33,0,22.19-8.1,22.19-23.49v-6.75h18.49v24.3c0,28.08-12.94,44.01-36.98,44.01h-33.28c-24.04,0-36.98-15.93-36.98-44.01v-75.6c0-28.08,12.94-44.01,36.98-44.01h22.65c13.17,0,20.57,2.97,25.89,15.39l4.39-13.23h17.33v68.04h-18.49Z"/><path d="M655.88,411.58h8.09c8.78,0,13.64-5.67,13.64-15.93v-53.46c0-10.26-4.85-15.93-13.64-15.93h-8.09v-38.34h76.74c24.04,0,37.45,17.01,37.45,45.09l.23,77.49c0,28.08-15.95,39.42-39.99,39.42h-74.43v-38.34Zm53.86,0h28.2c8.78,0,13.64-5.67,13.64-15.93v-53.46c0-10.26-4.85-15.93-13.64-15.93h-28.2c-8.78,0-13.64,5.67-13.64,15.93v53.46c0,10.26,4.85,15.93,13.64,15.93Z"/><path d="M880.48,287.92v62.37h-18.49v-8.1c0-10.26-4.85-15.93-13.64-15.93h-13.17c-8.78,0-13.64,5.67-13.64,15.93v16.74h6.7c4.39,0,6.93-4.86,6.93-8.91h15.02v40.23h-15.02c0-4.32-2.54-9.72-6.93-9.72h-6.7v15.12c0,10.26,4.85,15.93,13.64,15.93h13.17c8.78,0,13.64-5.67,13.64-15.93v-8.1h18.49v62.37h-101.24v-38.34h10.17c8.78,0,13.64-5.67,13.64-15.93v-53.46c0-10.26-4.85-15.93-13.64-15.93h-10.17v-38.34h101.24Z"/><path d="M990.43,287.92v62.37h-18.49v-8.1c0-10.26-4.85-15.93-13.64-15.93h-10.86c-8.78,0-13.64,5.67-13.64,15.93v16.74h6.7c4.39,0,6.93-4.86,6.93-8.91h15.02v40.23h-15.02c0-4.32-2.54-9.72-6.93-9.72h-6.7v15.12c0,10.26,4.85,15.93,13.64,15.93h10.17v38.34h-66.11v-38.34h10.17c8.78,0,13.64-5.67,13.64-15.93v-53.46c0-10.26-4.85-15.93-13.64-15.93h-10.17v-38.34h98.93Z"/><path d="M1052.45,450.46h-15.25c-24.04,0-36.98-15.66-36.98-43.74v-75.6c0-28.08,12.94-43.47,36.98-43.47h20.34c13.17,0,24.04,2.43,25.89,19.98l4.39-18.36h17.34v62.91h-22.88v-9.99c0-10.26-4.85-15.93-13.64-15.93h-36.29c-8.78,0-13.64,5.67-13.64,15.93v53.46c0,10.26,4.85,15.93,13.64,15.93h31.44c15.49,0,18.49-8.64,18.72-19.71,0-2.7-1.39-4.32-3.7-4.32h-20.57v-20.52h55.71v20.52h-4.16c-3,0-4.62,1.89-4.62,5.4v56.7h-18.03l-4.39-28.08c-3,28.08-17.1,28.89-30.28,28.89Z"/><path d="M1180.47,287.92v36.45c-6.7,0-20.34,.27-20.34,18.63v14.85h47.61v-14.85c0-18.36-13.64-18.63-20.34-18.63v-36.45h62.64v36.45c-7.63,.27-23.81-1.35-23.81,15.12v57.78c0,16.47,16.18,14.85,23.81,15.12v37.53h-62.64v-37.53c6.7,0,20.34-.27,20.34-18.63v-18.09h-47.61v18.09c0,18.36,13.64,18.63,20.34,18.63v37.53h-62.64v-37.53c7.63-.27,23.81,1.35,23.81-15.12v-57.78c0-16.47-16.18-14.85-23.81-15.12v-36.45h62.64Z"/><path d="M1289.18,411.58h19.42c8.78,0,13.64-5.67,13.64-15.93v-54.54c0-9.45-4.39-14.85-12.48-14.85h-11.79v-38.34h64.72v38.34h-9.01c-8.09,0-12.71,5.4-12.71,14.85l-.23,41.31v24.3c0,28.08-12.94,43.2-36.98,43.2h-9.71c-24.04,0-36.98-15.12-36.98-43.2v-28.08h18.72l-.23,17.01c-.23,10.53,4.85,15.93,13.64,15.93Z"/><path d="M1437.29,287.38v38.88h-11.33c-8.09,0-12.71,5.4-12.71,14.85l-.23,26.73,42.3-35.1c3.47-2.97,2.77-6.48-1.62-6.48h-9.48v-38.88h65.64v38.88h-16.18c-3.24,0-6.01,.81-8.78,3.24l-42.3,36.72,47.15,41.85c2.77,2.43,5.55,3.51,8.78,3.51h11.33v38.34h-65.64v-38.34h9.01c4.39,0,5.32-3.78,1.85-6.75l-27.97-25.38-13.87,12.15v5.13c0,9.45,4.62,14.85,12.71,14.85h11.33v38.34h-66.8v-38.34h11.56c8.09,0,12.48-5.4,12.48-14.85v-55.62c0-9.45-4.39-14.85-12.48-14.85h-11.56v-38.88h66.8Z"/><path d="M1581.38,287.92v36.45c-6.7,0-20.34,.27-20.34,18.63v50.76c0,18.36,13.64,18.63,20.34,18.63h9.71c9.01,0,13.87-5.67,13.87-16.2v-4.32h22.19v58.05h-108.4v-37.53c7.63-.27,23.81,1.35,23.81-15.12v-57.78c0-16.47-16.18-14.85-23.81-15.12v-36.45h62.64Z"/><path d="M1675.48,331.93l-.69,.81-.23,36.18,.23,27.81c0,9.45,4.62,14.85,12.71,14.85h9.01v38.34h-61.25v-38.34h9.25c8.09,0,12.48-5.4,12.48-14.85v-55.62c0-9.45-4.39-14.85-12.48-14.85h-9.25v-38.34h44.84l28.43,70.74,28.43-70.74h44.84v38.34h-9.25c-8.09,0-12.48,5.4-12.48,14.85v55.62c0,9.45,4.39,14.85,12.48,14.85h9.25v38.34h-61.25v-38.34h9.01c8.09,0,12.71-5.4,12.71-14.85l.23-27.81-.23-36.18-.69-.81-30.51,79.65h-5.08l-30.51-79.65Z"/><path d="M1835.52,287.92l48.08,120.96,.46-46.17v-22.14c0-9.45-4.39-14.85-12.48-14.85h-9.25v-38.34h61.25v38.34h-9.01c-8.09,0-12.71,5.4-12.71,14.85l-.23,28.35v81h-22.42l-49-120.15-.23,39.15,.23,27.81c0,9.45,4.62,14.85,12.71,14.85h9.01v38.34h-61.25v-38.34h9.25c8.09,0,12.48-5.4,12.48-14.85v-55.62c0-9.45-4.39-14.85-12.48-14.85h-9.25v-38.34h44.84Z"/><path d="M327.47,517.11h33.28c24.04,0,36.98,15.93,36.98,44.01v75.6c0,28.08-12.94,44.01-36.98,44.01h-33.28c-24.04,0-36.98-15.93-36.98-44.01v-75.6c0-28.08,12.94-44.01,36.98-44.01Zm3.7,125.55h25.89c14.33,0,22.19-8.1,22.19-23.49v-40.23c0-15.39-7.86-23.49-22.19-23.49h-25.89c-14.33,0-22.19,8.1-22.19,23.49v40.23c0,15.39,7.86,23.49,22.19,23.49Z"/><path d="M406.47,641.58h9.25c8.09,0,12.48-5.4,12.48-14.85v-55.62c0-9.45-4.39-14.85-12.48-14.85h-9.25v-38.34h68.88c24.04,0,43.92,15.12,43.92,43.2s-16.87,44.28-42.99,44.28h-29.59v21.33c0,9.45,4.39,14.85,12.48,14.85h8.09v38.34h-60.79v-38.34Zm86.91-70.47v-3.51c0-7.29-3.47-11.34-9.71-11.34h-23.11c-9.25,0-13.87,5.94-13.87,15.39v18.09h29.36c12.94,0,17.33-8.64,17.33-18.63Z"/><path d="M565.19,517.92h33.28c24.04,0,36.98,15.93,36.98,44.01v73.98c0,28.08-12.94,44.01-36.98,44.01h-9.01c5.55,11.34,23.58,14.85,34.44,14.85v17.01h-51.78l-.69-31.86h-6.24c-24.04,0-36.98-15.93-36.98-44.01v-73.98c0-28.08,12.94-44.01,36.98-44.01Zm3.7,123.66h25.89c14.33,0,22.19-8.1,22.19-23.49v-38.34c0-15.39-7.86-23.49-22.19-23.49h-25.89c-14.33,0-22.19,8.1-22.19,23.49v38.34c0,15.39,7.86,23.49,22.19,23.49Z"/><path d="M644.2,641.58h9.25c8.09,0,12.48-5.4,12.48-14.85v-55.62c0-9.45-4.39-14.85-12.48-14.85h-9.25v-38.34h70.5c24.04,0,43.92,15.12,43.92,43.2,0,25.65-14.1,41.31-33.52,44.01,23.81,7.83,7.17,36.72,29.82,36.72h5.55v38.34h-21.96c-14.33,0-20.8-13.5-21.5-32.94-1.16-33.21-3.24-41.31-23.11-41.31h-9.48v20.79c0,9.45,4.39,14.85,12.48,14.85h8.09v38.34h-60.79v-38.34Zm72.12-51.84c8.78,0,13.64-5.67,13.64-15.93v-1.62c0-10.26-4.85-15.93-13.64-15.93h-18.26c-8.78,0-13.64,5.67-13.64,15.93v17.55h31.9Z"/><path d="M772.32,580.02v-14.31c0-34.29,7.4-48.87,31.43-48.87h22.42c13.17,0,23.81,2.43,24.73,22.95l4.39-21.87h16.18v61.83h-20.8c0-16.47-2.31-23.22-22.88-23.22h-21.96c-9.01,0-14.56,4.59-14.56,15.66,0,9.72,4.16,14.85,11.56,14.85l45.53,.81c14.79,.27,23.34,9.72,23.34,27v18.63c0,31.59-7.63,48.06-31.67,48.06h-21.26c-13.17,0-25.43-1.35-26.35-21.87l-4.39,20.25h-17.8v-61.29h22.42c0,16.47,2.31,23.22,22.88,23.22h24.27c9.01,0,14.56-5.13,14.56-16.2v-4.59c0-8.64-4.16-13.5-11.56-13.5l-47.15-.81c-14.79-.27-23.34-9.45-23.34-26.73Z"/><path d="M996.24,573.81h-19.65v-2.7c0-9.45-3-14.85-12.02-14.85h-3.7c-8.09,0-12.48,5.4-12.71,14.85l-.23,16.74,.23,38.88c0,9.45,4.62,14.85,12.71,14.85h9.01v38.34h-62.18v-38.34h9.25c8.09,0,12.48-5.4,12.48-14.85v-55.62c0-9.45-4.39-14.85-12.48-14.85h-3.93c-9.01,0-12.02,5.4-12.02,14.85v2.7h-19.65v-55.89h114.88v55.89Z"/><path d="M1058.83,641.58h33.05c8.78,0,13.64-5.67,13.64-15.93v-54.54c0-9.45-4.39-14.85-12.48-14.85h-6.93v-38.34h59.87v38.34h-9.01c-8.09,0-12.71,5.4-12.71,14.85l-.23,41.31v24.3c0,28.08-12.94,43.2-36.98,43.2h-23.35c-24.04,0-36.98-15.12-36.98-43.2v-65.61c0-9.45-4.39-14.85-12.48-14.85h-9.25v-38.34h59.87v38.34h-6.7c-8.09,0-12.71,5.4-12.71,14.85l-.23,54.54c0,10.53,4.85,15.93,13.64,15.93Z"/><path d="M1212.4,517.92v38.34h-6.7c-8.09,0-13.17,5.94-9.94,14.85l24.96,68.58,25.66-68.58c3.24-8.91-1.85-14.85-9.94-14.85h-6.7v-38.34h57.55v38.34h-9.25c-8.09,0-9.25,6.21-12.48,14.85l-24.04,64.26c-1.39,3.78,0,6.21,3.47,6.21h12.02v38.34h-73.96v-38.34h13.64c3.47,0,4.85-2.43,3.47-6.21l-23.58-64.26c-3.24-8.91-4.39-14.85-12.48-14.85h-9.25v-38.34h57.55Z"/><path d="M1355.22,517.92v38.34h-11.56c-8.09,0-13.17,5.94-9.94,14.85l24.96,68.58,24.04-64.53c4.16-11.07-.23-18.9-10.63-18.9h-9.94v-38.34h62.87v38.34h-9.48c-10.4,0-14.79,7.83-10.63,18.9l23.58,64.53,25.66-68.58c3.24-8.91-1.85-14.85-9.94-14.85h-12.25v-38.34h60.79v38.34h-6.93c-8.09,0-9.25,6.21-12.48,14.85l-24.04,64.26c-1.39,3.78,0,6.21,3.47,6.21h12.02v38.34h-68.42v-38.34h8.09c3.47,0,4.85-2.43,3.47-6.21l-14.1-38.34-14.33,38.34c-1.39,3.78,0,6.21,3.47,6.21h6.47v38.34h-68.42v-38.34h13.64c3.47,0,4.85-2.43,3.47-6.21l-23.58-64.26c-3.24-8.91-4.39-14.85-12.48-14.85h-6.93v-38.34h60.1Z"/><path d="M1499.78,517.92h74.43v38.34h-15.72c-4.16,0-5.55,3.24-2.31,6.75l21.5,22.41,21.26-22.41c3.24-3.51,1.85-6.75-2.31-6.75h-15.72v-38.34h74.43v38.34h-18.72c-3.47,0-6.01,1.08-8.55,3.78l-37.21,39.15,36.98,38.61c2.54,2.7,5.08,3.78,8.55,3.78h18.95v38.34h-74.43v-38.34h14.56c4.16,0,5.55-3.24,2.31-6.75l-20.11-21.33-20.34,21.33c-3.24,3.51-1.85,6.75,2.31,6.75h14.56v38.34h-74.43v-38.34h18.95c3.47,0,6.01-1.08,8.55-3.78l36.98-38.61-37.21-39.15c-2.54-2.7-5.08-3.78-8.55-3.78h-18.72v-38.34Z"/><path d="M1662.13,517.92h64.26v38.34h-10.4c-3.93,0-5.32,1.89-2.77,6.48l16.64,28.35,17.1-28.35c2.54-4.32,1.16-6.48-2.77-6.48h-10.86v-38.34h64.26v38.34h-12.71c-7.17,0-12.71,1.89-16.87,8.91l-28.66,48.33v11.88c0,10.53,4.85,16.2,13.87,16.2h10.4v38.34h-68.42v-38.34h11.33c9.01,0,13.87-5.67,13.87-16.2v-11.88l-28.89-48.33c-4.16-7.02-9.71-8.91-16.87-8.91h-12.48v-38.34Z"/><path d="M1842.72,641.58h31.9c9.01,0,13.87-5.67,13.87-16.2v-1.35h19.65v55.89h-104.24v-38.07l68.42-73.98c5.32-5.94,3.7-11.61-3.7-11.61h-28.43c-9.01,0-13.87,5.67-13.87,16.2v1.35h-19.65v-55.89h100.78v38.07l-68.42,73.98c-5.32,5.94-3.7,11.61,3.7,11.61Z"/><path d="M430.11,966.43c-1.85,9.18-9.48,24.03-22.42,24.03h-29.59c-17.33,0-25.42-9.45-25.42-27v-19.71c0-38.61,73.04-21.06,73.04-39.69v-1.08c0-5.13-2.54-8.1-6.93-8.1h-36.29c-4.39,0-6.93,2.97-6.93,8.1v7.29h-19.88v-23.76c0-17.55,8.09-27,23.11-27h41.14c15.02,0,23.11,9.45,23.11,27v50.22c0,9.45,4.62,14.85,12.71,14.85h1.85v38.34h-25.19l-2.31-23.49Zm-52.24-14.85h34.21c8.78,0,13.64-5.67,13.64-15.93v-14.31c-3.93,8.1-57.09,4.59-57.09,22.14,0,5.13,3.24,8.1,9.25,8.1Z"/><path d="M505.37,811.18v59.67c6.24-7.29,14.33-11.07,22.42-11.07h15.72c23.34,0,35.83,14.58,35.83,41.85v47.79c0,27.27-12.48,41.85-35.83,41.85h-15.72c-10.17,0-20.57-4.05-24.27-20.79l-2.31,19.44h-34.44v-38.34h9.25c8.09,0,12.48-5.4,12.48-14.85v-77.76c0-9.45-4.39-14.85-12.48-14.85h-9.25v-32.94h38.6Zm14.1,140.4h29.59c8.78,0,13.64-5.67,13.64-15.93v-24.84c0-10.26-4.85-15.93-13.64-15.93h-29.59c-8.78,0-13.64,5.67-13.64,15.93v24.84c0,10.26,4.85,15.93,13.64,15.93Z"/><path d="M650.64,989.92h-29.82c-21.26,0-32.82-14.31-32.82-39.15v-51.03c0-24.84,11.56-39.15,32.82-39.15h20.34c11.79,0,18.49,2.7,23.11,13.77l3.93-11.88h15.49v54.54h-16.64v-6.21c0-10.26-4.85-15.93-13.64-15.93h-35.13c-8.78,0-13.64,5.67-13.64,15.93v24.84c0,10.26,4.85,15.93,13.64,15.93h35.36c7.4,0,12.02-4.05,13.17-11.34h16.87v10.53c0,24.84-11.33,39.15-33.05,39.15Z"/><path d="M692.73,950.23v-48.06c0-27.27,12.48-41.85,35.83-41.85h15.26c8.09,0,16.18,3.78,22.42,11.07v-11.88c0-11.88-4.62-14.85-12.71-14.85h-9.01v-32.94h39.06v125.01c0,9.45,4.39,14.85,12.48,14.85h4.62v38.34h-30.28l-1.85-21.06c-6.01,17.01-14.33,21.87-24.73,21.87h-16.41c-22.42,0-34.67-14.31-34.67-40.5Zm30.28,1.62h29.59c8.78,0,13.64-5.67,13.64-15.93v-25.11c0-10.26-4.85-15.93-13.64-15.93h-29.59c-8.78,0-13.64,5.67-13.64,15.93v25.11c0,10.26,4.85,15.93,13.64,15.93Z"/><path d="M809.41,902.71c0-28.08,12.94-43.2,36.98-43.2h23.58c24.04,0,36.98,15.12,36.98,43.2v24.3h-80.21v8.64c0,10.26,4.85,15.93,13.64,15.93h36.52c7.4,0,12.02-4.05,13.17-11.34h16.87v10.53c0,24.84-11.33,39.15-33.05,39.15h-27.51c-24.04,0-36.98-15.12-36.98-43.2v-44.01Zm66.34-7.83h-35.36c-8.78,0-13.64,5.67-13.64,19.44h62.64c0-13.77-4.85-19.44-13.64-19.44Z"/><path d="M962.14,811.72h19.65v36.18h-16.87c-8.09,0-12.71,2.97-12.71,14.85v8.37h20.8l.23,23.76h-21.03v49.95c0,4.32,2.08,6.75,5.78,6.75h12.48v38.34h-53.62v-38.34h11.79c3.7,0,5.78-2.43,5.78-6.75v-49.95h-16.18v-23.76h16.18v-27c0-21.06,9.71-32.4,27.74-32.4Z"/><path d="M1010.82,961.3l43.22-.27c15.02,0,23.11,8.64,23.11,26.19v21.33c0,15.66-7.4,24.3-20.8,24.3h-50.62c-13.41,0-20.8-7.29-20.8-18.09l-.23-25.92c0-7.83,2.54-12.15,11.33-12.69-7.4,0-11.33-5.67-11.33-13.23,0-9.18,4.85-13.77,11.56-12.96h1.16c-8.32-4.59-11.09-17.55-11.09-33.21v-22.14c0-23.76,10.86-36.45,31.2-36.45h21.73c3.24,0,6.24,.27,9.01,1.08l.23-15.39h29.82v9.72c-7.4,0-13.64,4.86-16.41,13.23,5.55,6.21,8.55,15.39,8.55,27.81v19.98c0,24.03-13.41,37.8-31.2,37.53h-27.97c-8.55,0-8.55,9.18-.46,9.18Zm-.92,35.91h44.38c5.08,0,7.86-3.24,7.86-9.18v-1.89c0-5.94-2.77-9.18-7.86-9.18h-44.38c-5.32,0-7.86,3.24-7.86,9.18v1.89c0,5.94,2.77,9.18,7.86,9.18Zm7.63-60.48h22.19c9.25,0,13.41-5.13,13.41-13.77v-15.66c0-8.64-4.16-13.77-13.41-13.77h-22.19c-9.25,0-13.41,5.13-13.41,13.77v15.66c0,8.64,4.16,13.77,13.41,13.77Z"/><path d="M1125.49,811.72v68.85c1.85-15.66,12.48-22.14,24.27-22.14h14.56c22.19,0,32.59,12.15,32.59,36.18l.23,42.12c0,9.45,4.62,14.85,12.71,14.85h9.01v38.34h-61.48v-38.34h9.71c8.09,0,12.48-5.4,12.48-14.85v-20.25c0-14.04-6.47-21.6-18.49-21.6h-17.1c-12.02,0-18.49,7.56-18.49,21.6v20.25c0,9.45,4.62,14.85,12.71,14.85h9.71v38.34h-61.48v-38.34h9.25c8.09,0,12.48-5.4,12.48-14.85v-74.52c0-9.45-4.39-14.85-12.48-14.85h-9.25v-35.64h39.06Z"/><path d="M1281.02,951.58h9.01v38.34h-61.25v-38.34h9.25c8.09,0,12.48-5.4,12.48-14.85v-27c0-9.45-4.39-14.85-12.48-14.85h-9.25v-34.56h39.52v76.41c0,9.45,4.62,14.85,12.71,14.85Zm-34.44-139.59h21.73v33.21h-21.73v-33.21Z"/><path d="M1290.01,1038.52h-6.01v-38.34h11.56c8.09,0,12.48-5.4,12.48-14.85v-75.6c0-9.45-4.39-14.85-12.48-14.85h-9.25v-34.56h40.68v143.1c0,28.08-16.41,35.1-36.98,35.1Zm14.1-226.53h22.88v33.21h-22.88v-33.21Z"/><path d="M1335.06,951.58h9.25c8.09,0,12.48-5.4,12.48-14.85v-74.25c0-9.45-4.39-14.85-12.48-14.85h-9.25v-35.91h39.06v106.38l18.72-16.47c3.47-2.97,2.54-6.75-1.85-6.75h-9.94v-34.56h65.41v34.56h-24.73c-3.47,0-6.01,1.08-8.55,3.51l-13.41,12.96,38.14,36.72c2.54,2.43,5.08,3.51,8.55,3.51h9.25v38.34h-55.47v-38.34h9.94c4.16,0,5.32-3.51,2.08-6.75l-23.11-23.22-15.02,14.58v.54c0,9.45,4.39,14.85,12.48,14.85h6.7v38.34h-58.25v-38.34Z"/><path d="M1462.37,989.92v-38.34h9.25c8.09,0,12.48-5.4,12.48-14.85v-77.22c0-9.45-4.39-14.85-12.48-14.85h-9.25v-32.94h39.06v125.01c0,9.45,4.39,14.85,12.48,14.85h9.25v38.34h-60.79Z"/><path d="M1696.9,894.61l.23,42.12c0,9.45,4.62,14.85,12.71,14.85h3.47v38.34h-52.24v-38.34h6.24c8.09,0,12.48-5.4,12.48-14.85v-20.25c0-14.04-6.47-21.6-18.49-21.6h-10.17c-11.09,0-17.57,6.48-18.49,18.63l.23,23.22c0,9.45,4.62,14.85,12.71,14.85h6.01v38.34h-55.01v-38.34h6.47c8.09,0,12.48-5.4,12.48-14.85v-20.25c0-14.04-6.47-21.6-18.49-21.6h-10.17c-12.02,0-18.49,7.56-18.49,21.6v20.25c0,9.45,4.62,14.85,12.71,14.85h6.01v38.34h-55.47v-38.34h6.93c8.09,0,12.48-5.4,12.48-14.85v-25.92c0-9.45-4.39-14.85-12.48-14.85h-6.93v-35.64h36.75v30.24c1.85-24.3,12.48-32.13,24.27-32.13h7.63c18.72,0,30.28,8.1,31.9,32.13,.23-24.03,13.17-32.13,24.96-32.13h7.17c22.19,0,32.36,12.15,32.59,36.18Z"/><path d="M1754.64,860.32l2.31,32.67c.23-23.49,12.71-34.56,26.81-34.56h16.18c22.19,0,32.59,12.15,32.59,36.18l.23,42.12c0,9.45,4.62,14.85,12.71,14.85h3.24v38.34h-56.86v-38.34h11.09c8.09,0,12.48-5.4,12.48-14.85v-20.25c0-14.04-6.47-21.6-18.49-21.6h-16.87c-12.02,0-18.49,7.56-18.49,21.6v20.25c0,9.45,4.62,14.85,12.71,14.85h10.63v38.34h-62.41v-38.34h9.25c8.09,0,12.48-5.4,12.48-14.85v-25.92c0-9.45-4.39-14.85-12.48-14.85h-9.25v-35.64h32.13Z"/><path d="M429.18,1090.32h23.58c24.04,0,36.98,15.12,36.98,43.2v42.12c0,28.08-12.94,44.28-36.98,44.28h-23.58c-24.04,0-36.98-16.2-36.98-44.28v-42.12c0-28.08,12.94-43.2,36.98-43.2Zm-6.01,91.26h35.6c8.78,0,13.64-5.67,13.64-15.93v-24.84c0-10.26-4.85-15.93-13.64-15.93h-35.6c-8.78,0-13.64,5.67-13.64,15.93v24.84c0,10.26,4.85,15.93,13.64,15.93Z"/><path d="M497.23,1235.58h9.25c8.09,0,12.48-5.4,12.48-14.85v-81c0-9.45-4.39-14.85-12.48-14.85h-9.25v-34.56h34.44l2.31,19.98c3.7-16.74,14.1-20.79,24.27-20.79h15.72c23.35,0,35.83,14.58,35.83,41.85v46.71c0,27.27-12.48,41.85-35.83,41.85h-15.72c-8.09,0-16.18-3.78-22.42-11.07v11.88c0,11.88,4.62,14.85,12.71,14.85h9.01v32.94h-60.33v-32.94Zm52.7-53.73h29.59c8.78,0,13.64-5.67,13.64-15.93v-25.11c0-10.26-4.85-15.93-13.64-15.93h-29.59c-8.78,0-13.64,5.67-13.64,15.93v25.11c0,10.26,4.85,15.93,13.64,15.93Z"/><path d="M670.19,1268.52v-32.94h9.01c8.09,0,12.71-2.97,12.71-14.85v-11.88c-6.24,7.29-14.33,11.07-22.42,11.07h-15.72c-23.35,0-35.83-14.58-35.83-41.85v-46.71c0-27.27,12.48-41.85,35.83-41.85h15.72c10.17,0,20.57,4.05,24.27,20.79l2.31-19.98h34.44v34.56h-9.25c-8.09,0-12.48,5.4-12.48,14.85v81c0,9.45,4.39,14.85,12.48,14.85h9.25v32.94h-60.33Zm-21.96-86.67h29.59c8.78,0,13.64-5.67,13.64-15.93v-25.11c0-10.26-4.85-15.93-13.64-15.93h-29.59c-8.78,0-13.64,5.67-13.64,15.93v25.11c0,10.26,4.85,15.93,13.64,15.93Z"/><path d="M797.04,1124.07c-12.02,0-18.26,8.37-18.26,22.41v20.25c0,9.45,4.62,14.85,12.71,14.85h9.01v38.34h-61.25v-38.34h9.25c8.09,0,12.48-5.4,12.48-14.85v-27c0-9.45-4.39-14.85-12.48-14.85h-9.25v-34.56h37.21l2.31,22.68c4.16-18.09,13.87-24.57,25.66-24.57,11.09,0,26.58,9.45,26.58,36.18v16.2h-19.88c0-10.53-6.01-16.74-14.1-16.74Z"/><path d="M902.94,1158.9h-40.91c-15.02,0-23.11-9.45-23.11-27v-14.58c0-17.28,8.55-27,23.34-27h15.95c15.25,0,26.58,.54,27.51,19.44l3.7-18.36h16.18v48.87h-19.88v-4.59c0-6.75-3.7-10.8-9.48-10.8h-28.89c-6.01,0-9.25,3.78-9.25,10.8v2.43c0,5.13,2.54,8.1,6.93,8.1h38.14c15.02,0,23.11,9.45,23.11,27v20.25c0,17.55-8.09,27-23.11,27h-22.19c-18.26,0-25.89-8.91-26.35-26.46l-2.77,25.92h-15.02v-56.16l21.03,.27v6.75c0,7.02,3.24,10.8,9.25,10.8h33.51c6.01,0,9.25-3.78,9.25-10.8v-3.78c0-5.13-2.54-8.1-6.93-8.1Z"/><path d="M985.58,1219.92h-17.57c-13.41,0-20.8-8.64-20.8-24.3v-72.9h-13.41v-32.4c12.94,0,15.02-12.15,15.02-35.1v-1.08h15.95v36.18h37.91v32.4h-37.91v44.01c0,9.45,4.62,14.85,12.71,14.85h6.7c7.17,0,11.56-3.51,13.17-10.8l.92-4.05h10.4v26.19c0,17.55-8.09,27-23.11,27Z"/><path d="M1030.21,1185.63l-.23-45.9c0-9.45-4.62-14.85-12.71-14.85h-3.47v-34.56h53.39v34.56h-6.93c-8.09,0-12.48,5.4-12.48,14.85v20.25c0,14.04,6.47,21.6,18.49,21.6h16.87c12.02,0,18.49-7.56,18.49-21.6v-20.25c0-9.45-4.62-14.85-12.71-14.85h-6.7v-34.56h56.17v34.56h-6.47c-8.09,0-12.48,5.4-12.48,14.85v27c0,9.45,4.39,14.85,12.48,14.85h6.93v38.34h-30.28l-2.31-32.67c-.23,23.49-12.71,34.56-26.81,34.56h-16.64c-22.19,0-32.59-12.15-32.59-36.18Z"/><path d="M1211.19,1090.32h50.62v34.56h-6.01c-3.7,0-6.47,1.89-8.32,5.67l-21.27,44.55c-1.62,3.51-.23,6.48,3.24,6.48h13.87v38.34h-79.05v-38.34h13.87c3.47,0,4.85-2.97,3.24-6.48l-21.26-44.55c-1.85-3.78-4.62-5.67-8.32-5.67h-6.01v-34.56h50.62v34.56h-10.63c-5.32,0-7.63,4.32-4.85,9.72l22.88,46.98,22.88-46.98c2.77-5.4,.46-9.72-4.85-9.72h-10.63v-34.56Z"/><path d="M1383.37,1090.32v34.56h-10.17c-3.47,0-5.08,2.7-3.47,6.48l20.8,50.22,22.88-46.98c2.77-5.4,.46-9.72-4.85-9.72h-10.63v-34.56h48.31v34.56h-3.7c-3.7,0-6.47,1.89-8.32,5.67l-21.26,44.55c-1.62,3.51-.23,6.48,3.24,6.48h11.56v38.34h-66.34v-38.34h3.47c3.47,0,4.62-2.7,3.24-6.48l-10.17-30.51-10.4,30.51c-1.16,3.51-.23,6.48,3.24,6.48h3.7v38.34h-66.57v-38.34h11.56c3.47,0,4.85-2.97,3.24-6.48l-21.27-44.55c-1.85-3.78-4.62-5.67-8.32-5.67h-3.7v-34.56h48.31v34.56h-10.63c-5.32,0-7.63,4.32-4.85,9.72l22.88,46.98,20.8-50.22c1.62-3.78,0-6.48-3.47-6.48h-9.94v-34.56h50.85Z"/><path d="M1572.18,1219.92h-55.01v-38.34h9.01c3.24,0,4.16-2.43,1.62-4.86l-14.1-14.58-13.87,14.58c-2.54,2.7-1.85,4.86,1.39,4.86h9.01v38.34h-55.01v-38.34h12.25c3.47,0,5.78-.81,8.55-3.51l26.35-25.11-26.12-24.57c-2.77-2.7-5.08-3.51-8.55-3.51h-12.48v-34.56h55.01v34.56h-8.78c-3.24,0-3.93,2.43-1.39,4.86l13.41,14.04,13.17-14.04c2.31-2.7,1.85-4.86-1.39-4.86h-8.09v-34.56h55.01v34.56h-13.18c-3.47,0-6.01,1.08-8.55,3.51l-25.66,24.57,27.04,25.11c2.77,2.7,5.08,3.51,8.55,3.51h11.79v38.34Z"/><path d="M1620.19,1197.78l-24.73-68.04c-1.16-3.51-4.85-4.86-8.55-4.86h-6.7v-34.56h50.62v34.56h-12.25c-3.7,0-4.16,2.43-2.77,6.48l22.42,64.26,22.19-64.26c1.39-4.05,.92-6.48-2.77-6.48h-12.25v-34.56h50.62v34.56h-6.7c-3.7,0-7.4,1.35-8.55,4.86l-32.13,95.58c-7.17,21.33-12.02,37.53-60.56,35.91v-35.1h17.57c15.72,0,20.57-11.61,14.56-28.35Z"/><path d="M1739.85,1184.01h33.51c9.01,0,13.87-7.29,13.87-17.82v-2.16h19.65v55.89h-102.39v-37.26l67.03-53.73c3.7-2.97,2.77-6.48-1.62-6.48h-31.43c-9.01,0-13.87,5.67-13.87,16.2v2.97h-19.65v-51.3h99.85v33.48l-66.8,53.73c-3.7,2.97-2.54,6.48,1.85,6.48Z"/><path d="M603.03,1427.05h-23.81v-35.37h12.94c11.09,0,15.49-5.4,15.49-23.76h19.88v109.35c0,9.45,4.39,14.31,12.48,14.31h9.01v38.34h-69.8v-38.34h15.95c8.09,0,12.48-5.4,12.48-14.85v-44.28c0-3.51-1.62-5.4-4.62-5.4Z"/><path d="M682.57,1484.02c0,8.91,3,11.34,17.34,11.34h14.33c17.57,0,18.72-12.96,18.72-25.65h20.34v60.21h-98.47v-32.13c0-66.15,76.04-51.03,76.04-75.06,0-12.42-8.09-17.01-16.64-17.01h-16.41c-11.09,0-18.72,7.56-18.72,24.03h-21.96c0-40.77,17.1-63.45,47.85-63.45,28.66,0,46.69,17.82,46.69,49.68,0,56.43-69.11,34.02-69.11,68.04Z"/><path d="M760.48,1474.03h22.42c0,11.88,5.78,17.55,15.25,17.55h20.34c8.78,0,13.64-5.67,13.64-15.93v-2.43c0-10.26-4.85-15.93-13.64-15.93h-18.49v-17.55h15.26c8.78,0,13.64-5.67,13.64-15.93v-1.62c0-10.26-4.85-15.93-13.64-15.93h-13.87c-9.48,0-15.95,5.67-15.95,17.55h-22.42c0-36.45,10.63-57.24,39.76-57.24h13.87c24.04,0,37.44,18.36,37.44,46.44,0,18.63-4.16,32.13-21.73,36.18,19.18,3.24,26.12,21.87,26.12,41.31,0,28.08-13.87,40.77-39.99,40.77h-21.73c-30.28,0-36.29-20.79-36.29-57.24Z"/><path d="M906.72,1367.92h38.14l.23,84.51h17.1v15.66h-17.1v8.64c0,9.45,4.62,14.85,12.71,14.85h8.32v38.34h-66.11v-38.34h13.17c8.09,0,12.48-5.4,12.48-14.85v-8.64h-62.18v-24.3l43.22-75.87Zm18.95,84.51l.46-64.26-36.29,64.26h35.83Z"/><path d="M1020.51,1367.65l53.86,.27v38.34h-65.41c-10.4,0-16.18,6.75-16.18,18.9v31.59l-2.77-2.43c-.92-6.75,.23-11.34,2.77-14.58,4.16-5.4,12.02-6.48,18.72-6.48h33.75c24.04,0,35.37,15.12,35.37,43.2v11.88c0,28.08-12.94,43.2-36.98,43.2h-31.9c-24.04,0-37.91-15.12-37.91-43.2v-9.18h19.65c.92,8.1,5.78,12.42,13.64,12.42h38.37c8.78,0,13.64-5.67,13.64-15.93v-8.91c0-7.83-4.85-15.93-13.64-15.93h-38.37c-8.78,0-13.64,8.1-13.64,15.66h-19.65v-97.2h16.41l4.39,15.93c5.32-15.12,12.71-17.55,25.89-17.55Z"/><path d="M1158.87,1406.26h-36.98c-10.4,0-16.18,6.75-16.18,18.9v18.09c4.39-7.02,11.79-8.37,18.72-8.37h37.44c19.42,0,30.05,12.42,30.05,35.1v26.46c0,22.68-10.63,35.1-30.05,35.1h-45.07c-19.42,0-30.05-12.42-30.05-35.1v-85.32c0-29.7,13.87-45.9,39.29-45.9h23.11c25.42,0,39.29,16.2,39.29,45.9v15.66h-15.95v-4.59c0-10.26-4.85-15.93-13.64-15.93Zm-52.47,66.42c0,12.15,5.78,18.9,16.18,18.9h34.21c10.4,0,16.18-6.75,16.18-18.9s-5.78-18.9-16.18-18.9h-34.21c-10.4,0-16.18,6.75-16.18,18.9Z"/><path d="M1273.19,1404.64h-40.91c-8.78,0-13.64,5.67-13.64,15.93v4.32h-22.88v-55.62h17.33l4.39,15.93c5.32-15.12,12.71-17.55,25.89-17.55h46.92v29.43c0,2.43-.23,3.78-.46,5.13-6.93,41.85-42.76,56.7-34.44,127.71h-43.22c-4.39-66.15,44.38-81,61.02-125.28Z"/><path d="M1320.3,1449.19c-17.57-4.05-21.73-17.55-21.73-36.18,0-28.08,13.41-47.79,37.44-47.79h24.04c24.04,0,37.44,19.71,37.44,47.79,0,18.63-4.16,32.13-21.73,36.18,19.18,3.24,26.12,21.87,26.12,41.31,0,28.08-13.87,41.85-39.99,41.85h-27.74c-26.12,0-39.99-13.77-39.99-41.85,0-19.44,6.93-38.07,26.12-41.31Zm13.87,42.39h27.74c8.78,0,13.64-5.67,13.64-15.93v-2.43c0-10.26-4.85-15.93-13.64-15.93h-27.74c-8.78,0-13.64,5.67-13.64,15.93v2.43c0,10.26,4.85,15.93,13.64,15.93Zm38.14-67.77v-1.62c0-10.26-4.85-15.93-13.64-15.93h-21.27c-8.78,0-13.64,5.67-13.64,15.93v1.62c0,10.26,4.85,15.93,13.64,15.93h21.27c8.78,0,13.64-5.67,13.64-15.93Z"/><path d="M1439.17,1491.58h38.14c10.4,0,16.18-6.75,16.18-18.9v-19.17c-4.39,7.02-11.79,8.37-18.72,8.37h-35.6c-19.42,0-30.05-12.42-30.05-35.1v-24.03c0-22.68,10.63-35.1,30.05-35.1h43.22c19.42,0,30.05,12.42,30.05,35.1v82.89c0,29.7-13.87,45.9-39.29,45.9h-24.27c-25.43,0-39.29-16.2-39.29-45.9v-9.99h15.95c0,10.26,4.85,15.93,13.64,15.93Zm-11.09-66.42c0,12.15,5.78,18.9,16.18,18.9h32.36c10.4,0,16.18-6.75,16.18-18.9s-5.78-18.9-16.18-18.9h-32.36c-10.4,0-16.18,6.75-16.18,18.9Z"/><path d="M1558.37,1367.11h21.73c24.04,0,36.98,15.93,36.98,44.01v75.6c0,28.08-12.94,44.01-36.98,44.01h-21.73c-24.04,0-36.98-15.93-36.98-44.01v-75.6c0-28.08,12.94-44.01,36.98-44.01Zm3.7,125.55h14.33c14.33,0,22.19-8.1,22.19-23.49v-40.23c0-15.39-7.86-23.49-22.19-23.49h-14.33c-14.33,0-22.19,8.1-22.19,23.49v40.23c0,15.39,7.86,23.49,22.19,23.49Z"/><path d="M502.47,1721.58v38.34h-28.2v-38.34h28.2Z"/><path d="M539.98,1721.58v31.86l-11.09,36.45h-16.18v-68.31h27.27Z"/><path d="M603.08,1652.73c0-12.42-8.09-16.47-16.64-16.47h-12.25c-11.09,0-18.72,7.02-18.72,23.49h-20.8c0-40.77,17.1-64.26,47.85-64.26,28.66,0,46.69,19.17,46.69,50.49,0,46.71-42.53,23.49-44.61,60.21h-14.79c-2.31-51.03,33.28-31.05,33.28-53.46Zm-40.68,68.85h28.2v38.34h-28.2v-38.34Z"/><path d="M673.37,1630.86l-9.71,75.33h-14.33l-9.48-75.33v-33.21h33.52v33.21Zm-31.67,90.72h28.2v38.34h-28.2v-38.34Z"/><path d="M681.2,1714.83c0-20.79,11.33-38.34,42.53-45.36-3.47-7.83-7.63-17.01-7.63-31.86,0-22.95,14.56-42.39,38.83-42.39s39.99,19.17,39.99,42.39c0,19.17-18.72,36.18-35.83,39.15,3.93,9.18,9.01,17.01,14.56,22.95,8.32-8.37,17.1-19.98,21.03-32.4h33.28v20.52c-8.55,0-28.2,4.32-44.61,20.52,14.56,11.07,31.2,14.31,43.45,13.23v38.34h-17.34c-16.87,0-36.75-17.82-44.84-28.89-6.7,11.88-15.72,31.05-37.68,31.05-26.35,0-45.77-21.33-45.77-47.25Zm70.73,2.43c-7.4-8.37-16.64-21.06-21.03-30.78-37.45,4.86-20.34,67.23,21.03,30.78Zm10.63-89.64c-22.42-5.13-17.8,21.6-10.86,35.91,16.87-1.89,26.81-32.13,10.86-35.91Z"/><path d="M890.36,1584.69v12.15c12.94,0,23.11,2.7,24.04,22.95l4.39-21.87h16.18v61.83h-20.8c0-16.47-2.31-23.22-22.88-23.22h-.92v31.05l21.5,.27c14.79,.27,23.34,9.72,23.34,27v18.63c0,31.59-7.63,48.06-31.67,48.06h-13.17v9.72h-15.72v-9.99c-9.94-1.08-18.03-5.13-18.72-21.6l-4.39,20.25h-17.8v-61.29h22.42c0,15.12,2.08,22.14,18.49,23.22v-34.83l-15.49-.27c-14.79-.27-23.35-9.45-23.35-26.73v-14.31c0-34.29,7.4-48.87,31.44-48.87h7.4v-12.15h15.72Zm-24.04,82.35l8.32,.27v-30.78h-5.32c-9.01,0-14.56,4.59-14.56,15.66,0,9.72,4.16,14.85,11.56,14.85Zm36.98,54.81c9.01,0,14.56-5.13,14.56-16.2v-4.59c0-8.64-4.16-13.5-11.56-13.5l-15.95-.27v34.56h12.94Z"/><path d="M943.31,1720.77v-51.03c0-24.84,11.56-39.15,32.82-39.15h7.17v-9.99h15.72v9.99c10.17,.54,16.18,3.51,20.57,13.77l3.93-11.88h15.49v54.54h-16.64v-6.21c0-10.26-4.85-15.93-13.64-15.93h-9.71v56.7h9.94c7.4,0,12.02-4.05,13.17-11.34h16.87v10.53c0,24.84-11.33,39.15-33.05,39.15h-6.93v11.34h-15.72v-11.34h-7.17c-21.26,0-32.82-14.31-32.82-39.15Zm30.28,.81h9.71v-56.7h-9.71c-8.78,0-13.64,5.67-13.64,15.93v24.84c0,10.26,4.85,15.93,13.64,15.93Z"/><path d="M1068.43,1759.65v-46.98c0-9.45-4.39-14.85-12.48-14.85h-9.25v-25.92h9.25c8.09,0,12.48-5.4,12.48-14.85v-43.74c0-17.55,8.09-27,23.11-27h16.18v32.94h-9.25c-8.09,0-12.48,5.4-12.48,14.85v27.54c0,11.07-3.24,18.9-9.48,23.22,6.24,4.32,9.48,12.15,9.48,23.22v30.78c0,9.45,4.39,14.85,12.48,14.85h9.25v32.94h-16.18c-15.02,0-23.11-9.45-23.11-27Z"/><path d="M1162.02,1638.69l19.65,23.22-17.34,14.58-12.94-30.24-12.94,30.24-17.33-14.58,19.65-23.22-27.74-5.13,6.7-23.49,25.42,15.12-4.39-32.67h21.26l-4.39,32.67,25.43-15.12,6.7,23.49-27.74,5.13Z"/><path d="M1195.37,1753.71h9.25c8.09,0,12.48-5.4,12.48-14.85v-30.78c0-11.07,3.24-18.9,9.48-23.22-6.24-4.32-9.48-12.15-9.48-23.22v-27.54c0-9.45-4.39-14.85-12.48-14.85h-9.25v-32.94h16.18c15.02,0,23.11,9.45,23.11,27v43.74c0,9.45,4.39,14.85,12.48,14.85h9.25v25.92h-9.25c-8.09,0-12.48,5.4-12.48,14.85v46.98c0,17.55-8.09,27-23.11,27h-16.18v-32.94Z"/><path d="M1289.93,1611.69h-4.39c-7.4,0-11.56,4.86-11.56,13.5v4.32h16.41v38.34h-28.2v-45.63c0-15.66,7.4-24.3,20.8-24.3h6.93v13.77Zm9.01,10.53c0-15.66,7.4-24.3,20.8-24.3h6.93v13.77h-4.39c-7.4,0-11.56,4.86-11.56,13.5v4.32h16.41v38.34h-28.2v-45.63Z"/><path d="M1332.11,1597.92h28.2v45.63c0,15.66-7.4,24.3-20.8,24.3h-6.93v-13.77h4.39c7.4,0,11.56-4.86,11.56-13.5v-4.32h-16.41v-38.34Zm37.21,56.16h4.39c7.4,0,11.56-4.86,11.56-13.5v-4.32h-16.41v-38.34h28.2v45.63c0,15.66-7.4,24.3-20.8,24.3h-6.93v-13.77Z"/><path d="M1432.17,1611.69h-4.39c-7.4,0-11.56,4.86-11.56,13.5v4.32h16.41v38.34h-28.2v-45.63c0-15.66,7.4-24.3,20.8-24.3h6.93v13.77Z"/><path d="M1439.38,1654.08h4.39c7.4,0,11.56-4.86,11.56-13.5v-4.32h-16.41v-38.34h28.2v45.63c0,15.66-7.4,24.3-20.8,24.3h-6.93v-13.77Z"/><path d="M1565.09,1630.32l22.65,37.8h38.37l-19.42-40.23,119.96,48.06-119.96,48.06,19.42-40.5h-38.37l-22.65,38.07h-92.22l27.27-45.63-27.27-45.63h92.22Z"/></g></g></g></svg>