<svg id="Layer_1" data-name="Layer 1" xmlns="http://www.w3.org/2000/svg" viewBox="0 0 839.39 839.4"><defs><style>.cls-1{fill:#a7dac5;}</style></defs><title>Artboard 2</title><path class="cls-1" d="M223.51,230.51V458a117.77,117.77,0,0,0,0-227.47Z"/><path class="cls-1" d="M419.7,0C187.91,0,0,187.89,0,419.7S187.91,839.4,419.7,839.4,839.39,651.51,839.39,419.7,651.48,0,419.7,0Zm64.08,165.46v61a32.79,32.79,0,0,0,0,65.58v61.06a93.84,93.84,0,0,1,0-187.68Zm-260.27,355V630.27h-61V165.46H193c98.58,0,178.79,80.21,178.79,178.77C371.78,432.41,307.61,505.91,223.51,520.44Zm271.41-41H341.25V464.18H494.92Zm0-40.72H373.59V423.46H494.92Zm0-40.74H398.33V382.73h96.59ZM528.34,630V165.19h61V569H725.46v61Z"/></svg>