<svg id="Layer_1" data-name="Layer 1" xmlns="http://www.w3.org/2000/svg" viewBox="0 0 100 100"><defs><style>.cls-1{fill:none;stroke:#000;stroke-miterlimit:10;stroke-width:1.5px;}</style></defs><path d="M33.64,58.4v9.16H28.55V28.8h2.54a14.91,14.91,0,0,1,2.55,29.6Zm0-24.18v19a9.82,9.82,0,0,0,0-19Z"/><circle class="cls-1" cx="50" cy="50" r="35"/><path d="M55.34,28.8v5.09a2.74,2.74,0,0,0,0,5.47v5.09a7.83,7.83,0,0,1,0-15.65Z"/><rect x="43.46" y="53.71" width="12.81" height="1.27"/><rect x="46.16" y="50.31" width="10.12" height="1.27"/><rect x="48.22" y="46.92" width="8.06" height="1.27"/><polygon points="59.06 67.54 59.06 28.77 64.15 28.77 64.15 62.45 75.5 62.45 75.5 67.54 59.06 67.54"/></svg>